<svg t="1692995476887" class="icon" viewBox="0 0 1024 1024" version="1.1" xmlns="http://www.w3.org/2000/svg" p-id="4736" width="200" height="200"><path d="M213.333333 917.333333c-12.8 0-21.333333-8.533333-21.333333-21.333333v-42.666667c0-12.8 8.533333-21.333333 21.333333-21.333333s21.333333 8.533333 21.333334 21.333333v42.666667c0 12.8-8.533333 21.333333-21.333334 21.333333zM810.666667 917.333333c-12.8 0-21.333333-8.533333-21.333334-21.333333v-42.666667c0-12.8 8.533333-21.333333 21.333334-21.333333s21.333333 8.533333 21.333333 21.333333v42.666667c0 12.8-8.533333 21.333333-21.333333 21.333333zM810.666667 405.333333c-12.8 0-21.333333-8.533333-21.333334-21.333333v-85.333333c0-98.133333-36.266667-149.333333-106.666666-149.333334H341.333333c-70.4 0-106.666667 51.2-106.666666 149.333334v85.333333c0 12.8-8.533333 21.333333-21.333334 21.333333s-21.333333-8.533333-21.333333-21.333333v-85.333333c0-121.6 55.466667-192 149.333333-192h341.333334c93.866667 0 149.333333 70.4 149.333333 192v85.333333c0 12.8-8.533333 21.333333-21.333333 21.333333z" fill="#333333" p-id="4737"></path><path d="M896 874.666667H128c-12.8 0-21.333333-8.533333-21.333333-21.333334V448c0-46.933333 38.4-85.333333 85.333333-85.333333h42.666667c46.933333 0 85.333333 38.4 85.333333 85.333333v213.333333h384V448c0-46.933333 38.4-85.333333 85.333333-85.333333h42.666667c46.933333 0 85.333333 38.4 85.333333 85.333333v405.333333c0 12.8-8.533333 21.333333-21.333333 21.333334zM149.333333 832h725.333334V448c0-23.466667-19.2-42.666667-42.666667-42.666667h-42.666667c-23.466667 0-42.666667 19.2-42.666666 42.666667v234.666667c0 12.8-8.533333 21.333333-21.333334 21.333333H298.666667c-12.8 0-21.333333-8.533333-21.333334-21.333333V448c0-23.466667-19.2-42.666667-42.666666-42.666667H192c-23.466667 0-42.666667 19.2-42.666667 42.666667v384z" fill="#333333" p-id="4738"></path><path d="M725.333333 693.333333c-12.8 0-21.333333-8.533333-21.333333-21.333333 0-76.8-85.333333-138.666667-192-138.666667s-192 61.866667-192 138.666667c0 12.8-8.533333 21.333333-21.333333 21.333333s-21.333333-8.533333-21.333334-21.333333c0-100.266667 104.533333-181.333333 234.666667-181.333333s234.666667 81.066667 234.666667 181.333333c0 12.8-8.533333 21.333333-21.333334 21.333333z" fill="#333333" p-id="4739"></path></svg>