<svg t="1692869923554" class="icon" viewBox="0 0 1024 1024" version="1.1" xmlns="http://www.w3.org/2000/svg" p-id="1012" width="32" height="32"><path d="M554.666667 503.466667v-42.666667l312.32-274.773333v42.666666z m-175.36 106.24a52.48 52.48 0 0 1 55.04-47.786667h101.12a20.053333 20.053333 0 0 0 13.226666-4.693333l144.64-128a93.866667 93.866667 0 0 0 85.333334 49.066666h60.16l-46.933334 42.666667-263.68 243.626667h-93.866666a52.053333 52.053333 0 0 1-55.04-47.786667zM838.4 162.986667l-310.613333 273.493333H151.893333l310.613334-273.493333zM123.306667 799.146667h82.346666A88.32 88.32 0 0 0 298.666667 716.373333v-106.666666a88.32 88.32 0 0 0-93.013334-82.773334H123.306667v-55.466666h392.96v55.466666h-81.92A88.32 88.32 0 0 0 341.333333 609.706667v106.666666a88.32 88.32 0 0 0 93.013334 82.773334h81.92V853.333333H123.306667z m137.386666-82.773334a52.053333 52.053333 0 0 1-55.04 47.786667H151.893333l108.8-95.573333z m606.293334-213.333333v40.106667l-75.52 66.56L554.666667 828.16v-39.253333l263.68-243.626667z m36.266666-48.64a20.48 20.48 0 0 0-8.96-8.106667h-116.053333a53.333333 53.333333 0 0 1-54.186667-42.666666l174.933334-154.453334a16.213333 16.213333 0 0 0 5.973333-12.373333v-72.533333a191.573333 191.573333 0 0 0 0-26.453334 18.773333 18.773333 0 0 0-3.84-4.693333L896 130.133333a17.493333 17.493333 0 0 0-6.826667 0H454.826667a20.053333 20.053333 0 0 0-13.226667 4.693334l-350.293333 306.346666a18.773333 18.773333 0 0 0-3.413334 4.693334 12.8 12.8 0 0 0 0 4.693333v93.013333a18.346667 18.346667 0 0 0 19.2 17.493334h98.56a52.48 52.48 0 0 1 55.04 47.786666v10.24l-170.666666 149.333334a15.786667 15.786667 0 0 0-5.973334 12.373333v89.6a18.346667 18.346667 0 0 0 19.2 17.493333h439.04l4.266667-2.986666 270.506667-249.6 80.64-71.253334a15.786667 15.786667 0 0 0 5.973333-12.373333v-91.733333-5.973334z" p-id="1013" fill="#2c2c2c"></path></svg>