<svg t="1692952185184" class="icon" viewBox="0 0 1024 1024" version="1.1" xmlns="http://www.w3.org/2000/svg" p-id="1755" width="200" height="200"><path d="M749.2 910.6c-6.1 0-11.9-1.5-17.4-4.4L517.6 793.6c-2.7-1.4-6.1-1.4-8.8 0L294.5 906.2c-5.5 2.9-11.4 4.4-17.4 4.4-11 0-21.5-4.9-28.7-13.4-7.1-8.4-10.1-19.5-8.2-30.4l40.9-238.5c0.5-3.1-0.5-6.2-2.7-8.4l-173.3-169c-10.3-10-13.9-24.7-9.5-38.4s16-23.4 30.2-25.5l239.5-34.8c3.1-0.4 5.7-2.4 7.1-5.2l107.1-217c6.4-12.9 19.2-20.9 33.6-20.9 14.4 0 27.2 8 33.6 20.9l107.1 217c1.4 2.8 4 4.7 7.1 5.2L900.5 387c14.2 2.1 25.8 11.8 30.2 25.5 4.4 13.7 0.8 28.4-9.5 38.4l-173.3 169c-2.2 2.2-3.2 5.3-2.7 8.4l40.9 238.5c1.9 10.9-1.1 22-8.2 30.4-7.2 8.5-17.6 13.4-28.7 13.4z m-236-146.1c6 0 12.1 1.5 17.4 4.3l214.2 112.6c1.4 0.8 2.9 1.1 4.4 1.1 2.7 0 5.5-1.3 7.3-3.5 1.3-1.5 2.6-4 2-7.6L717.6 633c-2.1-12.2 1.9-24.5 10.8-33.2l173.3-168.9c3.8-3.7 2.9-8 2.4-9.7-0.5-1.7-2.4-5.7-7.6-6.4L657 380c-12.2-1.8-22.7-9.4-28.2-20.5l-107.1-217c-2.3-4.8-6.7-5.3-8.5-5.3-1.8 0-6.1 0.5-8.5 5.3l-107.1 217c-5.5 11.1-16 18.7-28.2 20.5l-239.5 34.8c-5.2 0.8-7.1 4.8-7.6 6.4-0.5 1.7-1.4 6 2.4 9.7L298 599.8c8.8 8.6 12.9 21 10.8 33.2l-40.9 238.5c-0.6 3.6 0.7 6.1 2 7.6 1.8 2.2 4.6 3.5 7.3 3.5 1.5 0 3-0.4 4.4-1.1l214.2-112.6c5.3-2.9 11.3-4.4 17.4-4.4z" fill="#ffffff" p-id="1756"></path></svg>